<?xml version="1.0" standalone="no"?>
<!DOCTYPE svg PUBLIC "-//W3C//DTD SVG 20010904//EN"
 "http://www.w3.org/TR/2001/REC-SVG-20010904/DTD/svg10.dtd">
<svg version="1.0" xmlns="http://www.w3.org/2000/svg"
 width="512.000000pt" height="512.000000pt" viewBox="0 0 512.000000 512.000000"
 preserveAspectRatio="xMidYMid meet">

<g transform="translate(0.000000,512.000000) scale(0.100000,-0.100000)"
fill="#000000" stroke="none">
<path d="M2553 4624 c-6 -3 -21 -33 -32 -67 -11 -34 -83 -258 -161 -497 -187
-573 -257 -791 -282 -870 -11 -36 -27 -75 -34 -87 l-14 -23 -791 0 c-526 0
-797 -3 -810 -10 -10 -6 -19 -19 -19 -30 0 -13 178 -148 618 -467 339 -247
632 -459 650 -472 17 -12 32 -27 32 -33 0 -10 -230 -723 -289 -898 -16 -46
-111 -339 -182 -564 -11 -33 -17 -68 -14 -77 7 -21 34 -32 49 -21 6 5 153 111
326 237 173 126 423 307 555 404 359 261 401 291 414 291 7 0 40 -19 74 -42
97 -66 706 -508 1101 -800 121 -89 159 -105 171 -69 3 11 -20 99 -55 208 -129
396 -194 594 -245 748 -84 252 -185 569 -185 582 0 6 37 37 83 69 45 32 141
101 212 154 72 53 279 204 460 336 526 382 534 388 541 407 16 48 36 47 -816
47 -642 0 -800 3 -808 13 -11 12 -34 79 -136 397 -43 133 -216 665 -322 992
-27 82 -51 138 -60 142 -9 3 -16 6 -17 5 -1 0 -7 -3 -14 -5z"/>
</g>
</svg>
